<?xml version="1.0" encoding="utf-8"?>
<!-- Generator: Adobe Illustrator 25.2.0, SVG Export Plug-In . SVG Version: 6.00 Build 0)  -->
<svg version="1.1" id="Calque_1" xmlns="http://www.w3.org/2000/svg" xmlns:xlink="http://www.w3.org/1999/xlink" x="0px" y="0px"
	 viewBox="0 0 792.4 189.7" style="enable-background:new 0 0 792.4 189.7;" xml:space="preserve">
<path d="M-5,605.3v-17.4l6.6-0.1l6.6-0.1l0.1-15.1l0.1-15.1h20.2l0.1,12.3L29,582l6.1,0.1l6.1,0.1v-62.8H91v57.7h6.2v-5.6h14
	l0.2-3.7l0.2-3.7h28l0.2,3.7l0.2,3.7h10.3v4.6h14.5v-40h22.8v-11.6H226l0.1,31.2l0.1,31.2h4l-0.1-7.7l-0.1-7.7h18.7v-7l3.5-0.2
	l3.5-0.2l0.2-3.4l0.2-3.4h13.5v-71.3h26.5v-5.6h8.8v7.6h13v10.6h15.6v-6.6h7.8v4h11.9v-21.8h46.2v17.2l3-0.2l3-0.2l0.1-18.8
	l0.1-18.8h4.1v-6.6h4.7V433h18.7l0.1,8.2l0.1,8.2l2.7,0.2l2.7,0.2V467c0,16.7,0,17.3,1.1,18.4c1,1,1.1,1.8,1.2,10.9l0.1,9.8l1.9,0.2
	l1.9,0.2v27.3h9.9v-69.8h5.1l0.2-3.4l0.2-3.4l5.6-0.1l5.6-0.1v5.6h16.6v34.9h3.1v-10.1h41.5v9.6h4.7l0.1,43.6l0.1,43.6l2.7,0.2
	l2.7,0.2v12.1h4.7v-22.2l1.7-0.2l1.7-0.2l0.1-8.7l0.1-8.7h3.6v-6.6h7.3v5.6h5.7v31.4h7.8V558l3.3-0.2l3.2-0.2l0.2-3.7l0.2-3.7h5.1
	v5.1H606v-8.1h5.7v8.1h8.3v25.3h16.1V565h32.2v10.1h6.8v-7.1h20.8v-4h13v29.3h5.7v-6.1h5.7v-7.1h31.7v11.1h8.3v8.6h8.8v-3h18.1
	l0.1,12.9l0.1,12.9H-5V605.3z"/>
<path d="M0,397.2v-17.4l6.6-0.1l6.6-0.1l0.1-15.1l0.1-15.1h20.2l0.1,12.3l0.1,12.3l6.1,0.1l6.1,0.1v-62.8H96v57.7h6.2v-5.6h14
	l0.2-3.7l0.2-3.7h28l0.2,3.7l0.2,3.7h10.3v4.6h14.5v-40h22.8v-11.6H231l0.1,31.2l0.1,31.2h4l-0.1-7.7l-0.1-7.7h18.7v-7l3.5-0.2
	l3.5-0.2l0.2-3.4l0.2-3.4h13.5V278h26.5v-5.6h8.8v7.6h13v10.6h15.6v-6.6h7.8v4h11.9v-21.8h46.2v17.2l3-0.2l3-0.2l0.1-18.8l0.1-18.8
	h4.1v-6.6h4.7v-14.2h18.7l0.1,8.2l0.1,8.2l2.7,0.2l2.7,0.2v17.3c0,16.7,0,17.3,1.1,18.4c1,1,1.1,1.8,1.2,10.9l0.1,9.8l1.9,0.2
	l1.9,0.2v27.3h9.9v-69.8h5.1l0.2-3.4l0.2-3.4l5.6-0.1l5.6-0.1v5.6h16.6v34.9h3.1v-10.1h41.5v9.6h4.7l0.1,43.6l0.1,43.6l2.7,0.2
	l2.7,0.2v12.1h4.7v-22.2l1.7-0.2l1.7-0.2l0.1-8.7l0.1-8.7h3.6v-6.6h7.3v5.6h5.7v31.4h7.8v-28.8l3.3-0.2l3.2-0.2l0.2-3.7l0.2-3.7h5.1
	v5.1H611v-8.1h5.7v8.1h8.3v25.3h16.1V357h32.2v10.1h6.8V360h20.8v-4h13v29.3h5.7v-6.1h5.7v-7.1h31.7v11.1h8.3v8.6h8.8v-3h18.1
	l0.1,12.9l0.1,12.9H0V397.2z"/>
<polygon points="402.2,-27 6,162.7 402.2,162.7 798.4,162.7 "/>
</svg>
